HIERARCHY
ROOT joint_Root
{
	OFFSET 0.0 0.0 0.0
	CHANNELS 6 Xposition Yposition Zposition Zrotation Xrotation Yrotation 
	JOINT Hips
	{
		OFFSET -17.1583 93.1646 452.98
		CHANNELS 6 Xposition Yposition Zposition Zrotation Xrotation Yrotation 
		JOINT Spine
		{
			OFFSET 15.7357 0.0 0.0
			CHANNELS 6 Xposition Yposition Zposition Zrotation Xrotation Yrotation 
			JOINT Chest
			{
				OFFSET 8.98455 -0.406207 0.0
				CHANNELS 6 Xposition Yposition Zposition Zrotation Xrotation Yrotation 
				JOINT Neck
				{
					OFFSET 16.3773 0.0 0.0
					CHANNELS 6 Xposition Yposition Zposition Zrotation Xrotation Yrotation 
					JOINT Head
					{
						OFFSET 6.45672 0.0 0.0
						CHANNELS 6 Xposition Yposition Zposition Zrotation Xrotation Yrotation 
						End Site
						{
							OFFSET 0.0 0.0 0.0
						}
					}
				}
				JOINT Shoulder_L
				{
					OFFSET 12.9942 -0.242716 4.98039
					CHANNELS 6 Xposition Yposition Zposition Zrotation Xrotation Yrotation 
					JOINT UpperArm_L
					{
						OFFSET 5.34809 0.0 0.0
						CHANNELS 6 Xposition Yposition Zposition Zrotation Xrotation Yrotation 
						JOINT LowerArm_L
						{
							OFFSET 24.3286 1.87007e-05 0.0
							CHANNELS 6 Xposition Yposition Zposition Zrotation Xrotation Yrotation 
							JOINT Hand_L
							{
								OFFSET 22.2916 0.0 0.0
								CHANNELS 6 Xposition Yposition Zposition Zrotation Xrotation Yrotation 
								End Site
								{
									OFFSET 0.0 0.0 0.0
								}
							}
						}
					}
				}
				JOINT Shoulder_R
				{
					OFFSET 12.9945 -0.242716 -4.98039
					CHANNELS 6 Xposition Yposition Zposition Zrotation Xrotation Yrotation 
					JOINT UpperArm_R
					{
						OFFSET -5.34813 0.0 0.0
						CHANNELS 6 Xposition Yposition Zposition Zrotation Xrotation Yrotation 
						JOINT LowerArm_R
						{
							OFFSET -24.3289 0.000322201 0.0
							CHANNELS 6 Xposition Yposition Zposition Zrotation Xrotation Yrotation 
							JOINT Hand_R
							{
								OFFSET -22.2915 -0.000108084 0.0
								CHANNELS 6 Xposition Yposition Zposition Zrotation Xrotation Yrotation 
								End Site
								{
									OFFSET 0.0 0.0 0.0
								}
							}
						}
					}
				}
			}
		}
		JOINT UpperLeg_L
		{
			OFFSET -2.19248 -6.46944 0.0
			CHANNELS 6 Xposition Yposition Zposition Zrotation Xrotation Yrotation 
			JOINT LowerLeg_L
			{
				OFFSET 39.0811 0.0 -1.23785e-05
				CHANNELS 6 Xposition Yposition Zposition Zrotation Xrotation Yrotation 
				JOINT Foot_L
				{
					OFFSET 40.9854 0.0 -1.26872e-05
					CHANNELS 6 Xposition Yposition Zposition Zrotation Xrotation Yrotation 
					JOINT Toes_L
					{
						OFFSET 11.7543 0.0 0.0
						CHANNELS 6 Xposition Yposition Zposition Zrotation Xrotation Yrotation 
						End Site
						{
							OFFSET 0.0 0.0 0.0
						}
					}
				}
			}
		}
		JOINT UpperLeg_R
		{
			OFFSET -2.19251 6.46944 0.0
			CHANNELS 6 Xposition Yposition Zposition Zrotation Xrotation Yrotation 
			JOINT LowerLeg_R
			{
				OFFSET -39.0811 -0.00228153 -0.0401928
				CHANNELS 6 Xposition Yposition Zposition Zrotation Xrotation Yrotation 
				JOINT Foot_R
				{
					OFFSET -40.9854 0.0 0.0
					CHANNELS 6 Xposition Yposition Zposition Zrotation Xrotation Yrotation 
					JOINT Toes_R
					{
						OFFSET -11.7543 0.0 0.0
						CHANNELS 6 Xposition Yposition Zposition Zrotation Xrotation Yrotation 
						End Site
						{
							OFFSET 0.0 0.0 0.0
						}
					}
				}
			}
		}
	}
}
MOTION
Frames:	4
Frame Time:	0.0333333
0.000000 0.000000 0.000000 0.000000 0.000000 -0.000000 -2.145870 91.265400 46.830900 -90.342100 0.670165 179.897000 15.735700 0.000005 -0.000001 44.982100 86.692900 -44.350600 8.984550 -0.406207 -0.000000 -3.068920 -4.736060 1.136930 16.377300 -0.000001 -0.000001 4.803480 3.992050 -3.707680 6.456720 -0.000001 -0.000000 7.582780 6.767120 -0.016374 12.994200 -0.242716 4.980390 -92.016300 6.239730 -72.052000 5.348090 -0.000007 -0.000001 -72.524100 -13.400700 -5.005050 24.328600 0.000019 0.000005 39.355200 18.833400 -68.513800 22.291600 -0.000001 0.000005 50.666800 4.292800 19.902400 12.994500 -0.242716 -4.980390 89.631300 1.087000 -71.265000 -5.348130 -0.000001 -0.000004 -59.828600 -13.337600 15.225800 -24.328900 0.000322 -0.000009 -0.637993 -4.047720 -8.950720 -22.291500 -0.000108 -0.000004 51.925300 5.396070 -2.810640 -2.192480 -6.469440 -0.000000 179.441000 -4.745540 8.198640 39.081100 -0.000007 -0.000012 0.001541 -0.005923 14.587200 40.985400 -0.000006 -0.000013 -0.914411 20.235400 -69.442100 11.754300 -0.000000 0.000003 0.644569 0.979681 -13.177100 -2.192510 6.469440 -0.000001 -178.155000 -0.972317 156.853000 -39.081100 -0.002282 -0.040193 0.010144 -0.052431 7.390680 -40.985400 0.000008 0.000006 -5.151610 -6.763270 -61.363200 -11.754300 -0.000006 -0.000006 -0.005855 0.237176 -6.944740
0.000000 0.000000 0.000000 0.000000 0.000000 -0.000000 -1.876220 90.483300 42.709800 -90.320200 0.379014 179.495000 15.735700 0.000005 -0.000001 43.138200 86.793900 -42.460100 8.984550 -0.406207 -0.000000 -3.358640 -4.742490 1.217920 16.377300 -0.000001 -0.000001 4.606720 3.920920 -3.635360 6.456720 -0.000001 -0.000000 7.364090 6.615950 -0.153279 12.994200 -0.242716 4.980390 -92.117400 6.584150 -72.128600 5.348090 -0.000007 -0.000001 -72.440900 -13.832300 -5.514340 24.328600 0.000019 0.000005 39.444600 18.731100 -68.678000 22.291600 -0.000001 0.000005 51.049900 4.284050 20.037200 12.994500 -0.242716 -4.980390 89.450400 1.610240 -71.153600 -5.348130 -0.000001 -0.000004 -59.381100 -13.526100 14.585400 -24.328900 0.000322 -0.000009 -0.676002 -4.446740 -8.639860 -22.291500 -0.000108 -0.000004 52.211300 5.390530 -2.632430 -2.192480 -6.469440 -0.000000 -179.984000 -5.073900 9.557090 39.081100 -0.000007 -0.000012 -0.001605 0.005418 16.496800 40.985400 -0.000006 -0.000013 -0.553217 21.103600 -70.350200 11.754300 -0.000000 0.000003 0.344980 0.483474 -14.970600 -2.192510 6.469440 -0.000001 -177.249000 -0.189786 155.177000 -39.081100 -0.002282 -0.040193 0.006056 -0.024316 6.361260 -40.985400 0.000008 0.000006 -5.615420 -5.021130 -62.749100 -11.754300 -0.000006 -0.000006 -0.005830 0.236949 -6.954000
0.000000 0.000000 0.000000 0.000000 0.000000 -0.000000 -1.524100 89.756000 38.236700 -89.959100 -0.005370 178.629000 15.735700 0.000005 -0.000001 37.480200 87.000600 -36.610600 8.984550 -0.406207 -0.000000 -4.085810 -4.847040 1.567830 16.377300 -0.000001 -0.000001 4.420880 3.860540 -3.643230 6.456720 -0.000001 -0.000000 7.390860 6.458690 -0.270032 12.994200 -0.242716 4.980390 -92.239700 6.964760 -72.123800 5.348090 -0.000007 -0.000001 -72.361900 -14.173600 -5.176660 24.328600 0.000019 0.000005 39.749500 19.494100 -68.136900 22.291600 -0.000001 0.000005 51.322100 4.275980 20.160900 12.994500 -0.242716 -4.980390 89.231400 2.222630 -70.919900 -5.348130 -0.000001 -0.000004 -59.432200 -13.205800 13.457400 -24.328900 0.000322 -0.000009 -0.695716 -4.568150 -8.656420 -22.291500 -0.000108 -0.000004 52.049800 5.389470 -2.598330 -2.192480 -6.469440 -0.000000 -179.129000 -4.974570 9.826840 39.081100 -0.000007 -0.000012 -0.000781 0.002186 19.651700 40.985400 -0.000006 -0.000013 -0.287418 21.471800 -70.334700 11.754300 -0.000000 0.000003 -0.003026 -0.040907 -18.240400 -2.192510 6.469440 -0.000001 -176.380000 -0.366039 154.092000 -39.081100 -0.002282 -0.040193 0.007459 -0.032707 7.171370 -40.985400 0.000008 0.000006 -4.875680 -5.493280 -61.238100 -11.754300 -0.000006 -0.000006 -0.004993 0.229063 -7.275510
0.000000 0.000000 0.000000 0.000000 0.000000 -0.000000 -1.049970 89.252000 33.539500 -88.812900 -0.516444 176.878000 15.735700 0.000005 -0.000001 23.846800 87.419400 -22.432800 8.984550 -0.406207 -0.000000 -5.628710 -4.879540 2.592420 16.377300 -0.000001 -0.000001 4.550280 3.658810 -4.049710 6.456720 -0.000001 -0.000000 7.583240 6.165960 -0.439620 12.994200 -0.242716 4.980390 -92.497300 7.792670 -72.169300 5.348090 -0.000007 -0.000001 -71.742200 -14.002600 -3.805690 24.328600 0.000019 0.000005 38.558600 20.479500 -66.301000 22.291600 -0.000001 0.000005 51.114900 4.282320 20.063800 12.994500 -0.242716 -4.980390 88.980500 2.909540 -70.680000 -5.348130 -0.000001 -0.000004 -59.720400 -12.639300 12.396400 -24.328900 0.000322 -0.000009 -0.772746 -4.731970 -9.272730 -22.291500 -0.000108 -0.000004 51.817700 5.391910 -2.676460 -2.192480 -6.469440 -0.000000 -177.314000 -5.197390 8.457930 39.081100 -0.000007 -0.000012 0.009034 -0.020651 23.627900 40.985400 -0.000006 -0.000013 -0.257332 22.105300 -67.865900 11.754300 -0.000000 0.000003 -0.027655 -0.206520 -25.032100 -2.192510 6.469440 -0.000001 -175.065000 -1.644930 150.350000 -39.081100 -0.002282 -0.040193 0.002672 0.002697 13.760200 -40.985400 0.000008 0.000006 -1.932180 -7.140060 -55.314800 -11.754300 -0.000006 -0.000006 -0.004708 0.226277 -7.389040
